{
	"asset":{
		"generator":"Khronos glTF Blender I/O v4.1.63",
		"version":"2.0"
	},
	"scene":0,
	"scenes":[
		{
			"name":"Scene",
			"nodes":[
				0,
				1
			]
		}
	],
	"nodes":[
		{
			"mesh":0,
			"name":"ChestBase",
			"translation":[
				0,
				0.008169174194335938,
				0
			]
		},
		{
			"mesh":1,
			"name":"ChestBase_collider",
			"translation":[
				0,
				0.008169174194335938,
				0
			]
		}
	],
	"materials":[
		{
			"doubleSided":true,
			"emissiveFactor":[
				0.15000000596046448,
				0.15000000596046448,
				0.15000000596046448
			],
			"emissiveTexture":{
				"index":0
			},
			"name":"Wood",
			"pbrMetallicRoughness":{
				"baseColorTexture":{
					"index":1
				},
				"metallicFactor":0,
				"roughnessFactor":0.5
			}
		},
		{
			"doubleSided":true,
			"name":"Hair",
			"pbrMetallicRoughness":{
				"baseColorFactor":[
					0,
					0,
					0,
					1
				],
				"metallicFactor":0
			}
		},
		{
			"doubleSided":true,
			"emissiveFactor":[
				0.04232645395884593,
				0.07991038083896607,
				0.041788533952661355
			],
			"name":"Boots",
			"pbrMetallicRoughness":{
				"baseColorFactor":[
					0.4232645332813263,
					0.7991037964820862,
					0.41788533329963684,
					1
				],
				"metallicFactor":0.8999999761581421,
				"roughnessFactor":0.5
			}
		}
	],
	"meshes":[
		{
			"name":"Cube.006",
			"primitives":[
				{
					"attributes":{
						"POSITION":0,
						"NORMAL":1,
						"TEXCOORD_0":2
					},
					"indices":3,
					"material":0
				},
				{
					"attributes":{
						"POSITION":4,
						"NORMAL":5,
						"TEXCOORD_0":6
					},
					"indices":7,
					"material":1
				},
				{
					"attributes":{
						"POSITION":8,
						"NORMAL":9,
						"TEXCOORD_0":10
					},
					"indices":11,
					"material":2
				}
			]
		},
		{
			"name":"Cube.009",
			"primitives":[
				{
					"attributes":{
						"POSITION":12,
						"NORMAL":13,
						"TEXCOORD_0":14
					},
					"indices":15
				}
			]
		}
	],
	"textures":[
		{
			"sampler":0,
			"source":0
		},
		{
			"sampler":0,
			"source":0
		}
	],
	"images":[
		{
			"mimeType":"image/png",
			"name":"woodenChest",
			"uri":"woodenChest.png"
		}
	],
	"accessors":[
		{
			"bufferView":0,
			"componentType":5126,
			"count":438,
			"max":[
				1.5,
				1.9892241954803467,
				1
			],
			"min":[
				-1.5,
				-0.01077580451965332,
				-1
			],
			"type":"VEC3"
		},
		{
			"bufferView":1,
			"componentType":5126,
			"count":438,
			"type":"VEC3"
		},
		{
			"bufferView":2,
			"componentType":5126,
			"count":438,
			"type":"VEC2"
		},
		{
			"bufferView":3,
			"componentType":5123,
			"count":666,
			"type":"SCALAR"
		},
		{
			"bufferView":4,
			"componentType":5126,
			"count":138,
			"max":[
				1.48210871219635,
				1.3042242527008057,
				0.9880725145339966
			],
			"min":[
				-1.48210871219635,
				0.6742241382598877,
				-0.9880725145339966
			],
			"type":"VEC3"
		},
		{
			"bufferView":5,
			"componentType":5126,
			"count":138,
			"type":"VEC3"
		},
		{
			"bufferView":6,
			"componentType":5126,
			"count":138,
			"type":"VEC2"
		},
		{
			"bufferView":7,
			"componentType":5123,
			"count":186,
			"type":"SCALAR"
		},
		{
			"bufferView":8,
			"componentType":5126,
			"count":3200,
			"max":[
				1.7292243242263794,
				1.9783449172973633,
				1.1109635829925537
			],
			"min":[
				-1.7292240858078003,
				-0.030057311058044434,
				-1.1109635829925537
			],
			"type":"VEC3"
		},
		{
			"bufferView":9,
			"componentType":5126,
			"count":3200,
			"type":"VEC3"
		},
		{
			"bufferView":10,
			"componentType":5126,
			"count":3200,
			"type":"VEC2"
		},
		{
			"bufferView":11,
			"componentType":5123,
			"count":4800,
			"type":"SCALAR"
		},
		{
			"bufferView":12,
			"componentType":5126,
			"count":24,
			"max":[
				1.4959537982940674,
				1.9969929456710815,
				1
			],
			"min":[
				-1.4959537982940674,
				-0.003007054328918457,
				-1
			],
			"type":"VEC3"
		},
		{
			"bufferView":13,
			"componentType":5126,
			"count":24,
			"type":"VEC3"
		},
		{
			"bufferView":14,
			"componentType":5126,
			"count":24,
			"type":"VEC2"
		},
		{
			"bufferView":15,
			"componentType":5123,
			"count":36,
			"type":"SCALAR"
		}
	],
	"bufferViews":[
		{
			"buffer":0,
			"byteLength":5256,
			"byteOffset":0,
			"target":34962
		},
		{
			"buffer":0,
			"byteLength":5256,
			"byteOffset":5256,
			"target":34962
		},
		{
			"buffer":0,
			"byteLength":3504,
			"byteOffset":10512,
			"target":34962
		},
		{
			"buffer":0,
			"byteLength":1332,
			"byteOffset":14016,
			"target":34963
		},
		{
			"buffer":0,
			"byteLength":1656,
			"byteOffset":15348,
			"target":34962
		},
		{
			"buffer":0,
			"byteLength":1656,
			"byteOffset":17004,
			"target":34962
		},
		{
			"buffer":0,
			"byteLength":1104,
			"byteOffset":18660,
			"target":34962
		},
		{
			"buffer":0,
			"byteLength":372,
			"byteOffset":19764,
			"target":34963
		},
		{
			"buffer":0,
			"byteLength":38400,
			"byteOffset":20136,
			"target":34962
		},
		{
			"buffer":0,
			"byteLength":38400,
			"byteOffset":58536,
			"target":34962
		},
		{
			"buffer":0,
			"byteLength":25600,
			"byteOffset":96936,
			"target":34962
		},
		{
			"buffer":0,
			"byteLength":9600,
			"byteOffset":122536,
			"target":34963
		},
		{
			"buffer":0,
			"byteLength":288,
			"byteOffset":132136,
			"target":34962
		},
		{
			"buffer":0,
			"byteLength":288,
			"byteOffset":132424,
			"target":34962
		},
		{
			"buffer":0,
			"byteLength":192,
			"byteOffset":132712,
			"target":34962
		},
		{
			"buffer":0,
			"byteLength":72,
			"byteOffset":132904,
			"target":34963
		}
	],
	"samplers":[
		{
			"magFilter":9729,
			"minFilter":9987
		}
	],
	"buffers":[
		{
			"byteLength":132976,
			"uri":"chestBase.bin"
		}
	]
}
