{
	"asset":{
		"generator":"Khronos glTF Blender I/O v4.1.63",
		"version":"2.0"
	},
	"scene":0,
	"scenes":[
		{
			"name":"Scene",
			"nodes":[
				0,
				1
			]
		}
	],
	"nodes":[
		{
			"mesh":0,
			"name":"ChestLid",
			"translation":[
				0,
				1.9673789739608765,
				-1.0128000974655151
			]
		},
		{
			"mesh":1,
			"name":"ChestLid_collider",
			"translation":[
				0,
				-0.020875945687294006,
				0.016599327325820923
			]
		}
	],
	"materials":[
		{
			"doubleSided":true,
			"emissiveFactor":[
				0.12461503345231328,
				0,
				0.0007772411994284856
			],
			"name":"Red material",
			"pbrMetallicRoughness":{
				"baseColorFactor":[
					0.8307656049728394,
					0,
					0.005181534215807915,
					1
				],
				"metallicFactor":0.8999999761581421,
				"roughnessFactor":0.5
			}
		},
		{
			"doubleSided":true,
			"emissiveFactor":[
				0.1500036180020814,
				0.1500036180020814,
				0.1500036180020814
			],
			"name":"White material",
			"pbrMetallicRoughness":{
				"metallicFactor":0,
				"roughnessFactor":0.5
			}
		},
		{
			"doubleSided":true,
			"emissiveFactor":[
				0.014996139928641017,
				0.017464390657311535,
				0.10000240951780093
			],
			"name":"Dress",
			"pbrMetallicRoughness":{
				"baseColorFactor":[
					0.1486607789993286,
					0.17520791292190552,
					1,
					1
				],
				"metallicFactor":0.8999999761581421,
				"roughnessFactor":0.5
			}
		},
		{
			"doubleSided":true,
			"emissiveFactor":[
				0.07454176060172557,
				0.05394706806461613,
				0.005126988219126882
			],
			"name":"Golden",
			"pbrMetallicRoughness":{
				"baseColorFactor":[
					0.7423875331878662,
					0.537237823009491,
					0.0519367977976799,
					1
				],
				"metallicFactor":0.8999999761581421,
				"roughnessFactor":0.5
			}
		}
	],
	"meshes":[
		{
			"name":"Sphere.028",
			"primitives":[
				{
					"attributes":{
						"POSITION":0,
						"NORMAL":1,
						"TEXCOORD_0":2
					},
					"indices":3,
					"material":0
				},
				{
					"attributes":{
						"POSITION":4,
						"NORMAL":5,
						"TEXCOORD_0":6
					},
					"indices":7,
					"material":1
				},
				{
					"attributes":{
						"POSITION":8,
						"NORMAL":9,
						"TEXCOORD_0":10
					},
					"indices":11,
					"material":2
				},
				{
					"attributes":{
						"POSITION":12,
						"NORMAL":13,
						"TEXCOORD_0":14
					},
					"indices":15,
					"material":3
				}
			]
		},
		{
			"name":"Cube.010",
			"primitives":[
				{
					"attributes":{
						"POSITION":16,
						"NORMAL":17,
						"TEXCOORD_0":18
					},
					"indices":19
				}
			]
		}
	],
	"accessors":[
		{
			"bufferView":0,
			"componentType":5126,
			"count":1489,
			"max":[
				2.0186827182769775,
				1.5646930932998657,
				2.6158487796783447
			],
			"min":[
				-2.0187954902648926,
				-0.2463521957397461,
				-0.49462443590164185
			],
			"type":"VEC3"
		},
		{
			"bufferView":1,
			"componentType":5126,
			"count":1489,
			"type":"VEC3"
		},
		{
			"bufferView":2,
			"componentType":5126,
			"count":1489,
			"type":"VEC2"
		},
		{
			"bufferView":3,
			"componentType":5123,
			"count":2400,
			"type":"SCALAR"
		},
		{
			"bufferView":4,
			"componentType":5126,
			"count":704,
			"max":[
				1.8217053413391113,
				1.2572699785232544,
				2.277805805206299
			],
			"min":[
				-1.8575036525726318,
				-0.04133951663970947,
				0.7107073068618774
			],
			"type":"VEC3"
		},
		{
			"bufferView":5,
			"componentType":5126,
			"count":704,
			"type":"VEC3"
		},
		{
			"bufferView":6,
			"componentType":5126,
			"count":704,
			"type":"VEC2"
		},
		{
			"bufferView":7,
			"componentType":5123,
			"count":960,
			"type":"SCALAR"
		},
		{
			"bufferView":8,
			"componentType":5126,
			"count":96,
			"max":[
				0.07631266117095947,
				0.18644499778747559,
				2.67623233795166
			],
			"min":[
				-0.07631269097328186,
				-0.08945536613464355,
				2.5779523849487305
			],
			"type":"VEC3"
		},
		{
			"bufferView":9,
			"componentType":5126,
			"count":96,
			"type":"VEC3"
		},
		{
			"bufferView":10,
			"componentType":5126,
			"count":96,
			"type":"VEC2"
		},
		{
			"bufferView":11,
			"componentType":5123,
			"count":144,
			"type":"SCALAR"
		},
		{
			"bufferView":12,
			"componentType":5126,
			"count":256,
			"max":[
				0.22137559950351715,
				0.3843957185745239,
				2.624676465988159
			],
			"min":[
				-0.22137562930583954,
				-0.3404170274734497,
				2.5565857887268066
			],
			"type":"VEC3"
		},
		{
			"bufferView":13,
			"componentType":5126,
			"count":256,
			"type":"VEC3"
		},
		{
			"bufferView":14,
			"componentType":5126,
			"count":256,
			"type":"VEC2"
		},
		{
			"bufferView":15,
			"componentType":5123,
			"count":384,
			"type":"SCALAR"
		},
		{
			"bufferView":16,
			"componentType":5126,
			"count":24,
			"max":[
				1.9786567687988281,
				3.541253089904785,
				1.4306267499923706
			],
			"min":[
				-1.9786567687988281,
				1.9645650386810303,
				-1.4306267499923706
			],
			"type":"VEC3"
		},
		{
			"bufferView":17,
			"componentType":5126,
			"count":24,
			"type":"VEC3"
		},
		{
			"bufferView":18,
			"componentType":5126,
			"count":24,
			"type":"VEC2"
		},
		{
			"bufferView":19,
			"componentType":5123,
			"count":36,
			"type":"SCALAR"
		}
	],
	"bufferViews":[
		{
			"buffer":0,
			"byteLength":17868,
			"byteOffset":0,
			"target":34962
		},
		{
			"buffer":0,
			"byteLength":17868,
			"byteOffset":17868,
			"target":34962
		},
		{
			"buffer":0,
			"byteLength":11912,
			"byteOffset":35736,
			"target":34962
		},
		{
			"buffer":0,
			"byteLength":4800,
			"byteOffset":47648,
			"target":34963
		},
		{
			"buffer":0,
			"byteLength":8448,
			"byteOffset":52448,
			"target":34962
		},
		{
			"buffer":0,
			"byteLength":8448,
			"byteOffset":60896,
			"target":34962
		},
		{
			"buffer":0,
			"byteLength":5632,
			"byteOffset":69344,
			"target":34962
		},
		{
			"buffer":0,
			"byteLength":1920,
			"byteOffset":74976,
			"target":34963
		},
		{
			"buffer":0,
			"byteLength":1152,
			"byteOffset":76896,
			"target":34962
		},
		{
			"buffer":0,
			"byteLength":1152,
			"byteOffset":78048,
			"target":34962
		},
		{
			"buffer":0,
			"byteLength":768,
			"byteOffset":79200,
			"target":34962
		},
		{
			"buffer":0,
			"byteLength":288,
			"byteOffset":79968,
			"target":34963
		},
		{
			"buffer":0,
			"byteLength":3072,
			"byteOffset":80256,
			"target":34962
		},
		{
			"buffer":0,
			"byteLength":3072,
			"byteOffset":83328,
			"target":34962
		},
		{
			"buffer":0,
			"byteLength":2048,
			"byteOffset":86400,
			"target":34962
		},
		{
			"buffer":0,
			"byteLength":768,
			"byteOffset":88448,
			"target":34963
		},
		{
			"buffer":0,
			"byteLength":288,
			"byteOffset":89216,
			"target":34962
		},
		{
			"buffer":0,
			"byteLength":288,
			"byteOffset":89504,
			"target":34962
		},
		{
			"buffer":0,
			"byteLength":192,
			"byteOffset":89792,
			"target":34962
		},
		{
			"buffer":0,
			"byteLength":72,
			"byteOffset":89984,
			"target":34963
		}
	],
	"buffers":[
		{
			"byteLength":90056,
			"uri":"chestLid.bin"
		}
	]
}
