{
	"asset":{
		"generator":"Khronos glTF Blender I/O v4.1.63",
		"version":"2.0"
	},
	"scene":0,
	"scenes":[
		{
			"name":"Scene",
			"nodes":[
				0,
				1
			]
		}
	],
	"nodes":[
		{
			"mesh":0,
			"name":"GreenFrogButton"
		},
		{
			"mesh":1,
			"name":"GreenFrogButton_collider"
		}
	],
	"materials":[
		{
			"doubleSided":true,
			"emissiveFactor":[
				0.04232623342165698,
				0.07991064905987155,
				0.041788066056192896
			],
			"name":"Earring",
			"pbrMetallicRoughness":{
				"baseColorFactor":[
					0.4232645332813263,
					0.7991037964820862,
					0.41788533329963684,
					1
				],
				"metallicFactor":0.8999999761581421,
				"roughnessFactor":0.5
			}
		},
		{
			"doubleSided":true,
			"name":"Hair",
			"pbrMetallicRoughness":{
				"baseColorFactor":[
					0,
					0,
					0,
					1
				],
				"metallicFactor":0
			}
		}
	],
	"meshes":[
		{
			"name":"Plane.001",
			"primitives":[
				{
					"attributes":{
						"POSITION":0,
						"NORMAL":1,
						"TEXCOORD_0":2
					},
					"indices":3,
					"material":0
				},
				{
					"attributes":{
						"POSITION":4,
						"NORMAL":5,
						"TEXCOORD_0":6
					},
					"indices":7,
					"material":1
				}
			]
		},
		{
			"name":"Plane.003",
			"primitives":[
				{
					"attributes":{
						"POSITION":8,
						"NORMAL":9,
						"TEXCOORD_0":10
					},
					"indices":3,
					"material":0
				},
				{
					"attributes":{
						"POSITION":11,
						"NORMAL":12,
						"TEXCOORD_0":13
					},
					"indices":7,
					"material":1
				}
			]
		}
	],
	"accessors":[
		{
			"bufferView":0,
			"componentType":5126,
			"count":462,
			"max":[
				2.7217140197753906,
				5.251330375671387,
				3.2172374725341797
			],
			"min":[
				0.7979504466056824,
				3.7142927646636963,
				2.8020200729370117
			],
			"type":"VEC3"
		},
		{
			"bufferView":1,
			"componentType":5126,
			"count":462,
			"type":"VEC3"
		},
		{
			"bufferView":2,
			"componentType":5126,
			"count":462,
			"type":"VEC2"
		},
		{
			"bufferView":3,
			"componentType":5123,
			"count":1632,
			"type":"SCALAR"
		},
		{
			"bufferView":4,
			"componentType":5126,
			"count":30,
			"max":[
				2.4541101455688477,
				5.069390296936035,
				3.2172374725341797
			],
			"min":[
				1.0655546188354492,
				4.1033854484558105,
				3.2172374725341797
			],
			"type":"VEC3"
		},
		{
			"bufferView":5,
			"componentType":5126,
			"count":30,
			"type":"VEC3"
		},
		{
			"bufferView":6,
			"componentType":5126,
			"count":30,
			"type":"VEC2"
		},
		{
			"bufferView":7,
			"componentType":5123,
			"count":72,
			"type":"SCALAR"
		},
		{
			"bufferView":8,
			"componentType":5126,
			"count":462,
			"max":[
				2.7217140197753906,
				5.251330375671387,
				3.2172374725341797
			],
			"min":[
				0.7979504466056824,
				3.7142927646636963,
				2.8020200729370117
			],
			"type":"VEC3"
		},
		{
			"bufferView":9,
			"componentType":5126,
			"count":462,
			"type":"VEC3"
		},
		{
			"bufferView":10,
			"componentType":5126,
			"count":462,
			"type":"VEC2"
		},
		{
			"bufferView":11,
			"componentType":5126,
			"count":30,
			"max":[
				2.4541101455688477,
				5.069390296936035,
				3.2172374725341797
			],
			"min":[
				1.0655546188354492,
				4.1033854484558105,
				3.2172374725341797
			],
			"type":"VEC3"
		},
		{
			"bufferView":12,
			"componentType":5126,
			"count":30,
			"type":"VEC3"
		},
		{
			"bufferView":13,
			"componentType":5126,
			"count":30,
			"type":"VEC2"
		}
	],
	"bufferViews":[
		{
			"buffer":0,
			"byteLength":5544,
			"byteOffset":0,
			"target":34962
		},
		{
			"buffer":0,
			"byteLength":5544,
			"byteOffset":5544,
			"target":34962
		},
		{
			"buffer":0,
			"byteLength":3696,
			"byteOffset":11088,
			"target":34962
		},
		{
			"buffer":0,
			"byteLength":3264,
			"byteOffset":14784,
			"target":34963
		},
		{
			"buffer":0,
			"byteLength":360,
			"byteOffset":18048,
			"target":34962
		},
		{
			"buffer":0,
			"byteLength":360,
			"byteOffset":18408,
			"target":34962
		},
		{
			"buffer":0,
			"byteLength":240,
			"byteOffset":18768,
			"target":34962
		},
		{
			"buffer":0,
			"byteLength":144,
			"byteOffset":19008,
			"target":34963
		},
		{
			"buffer":0,
			"byteLength":5544,
			"byteOffset":19152,
			"target":34962
		},
		{
			"buffer":0,
			"byteLength":5544,
			"byteOffset":24696,
			"target":34962
		},
		{
			"buffer":0,
			"byteLength":3696,
			"byteOffset":30240,
			"target":34962
		},
		{
			"buffer":0,
			"byteLength":360,
			"byteOffset":33936,
			"target":34962
		},
		{
			"buffer":0,
			"byteLength":360,
			"byteOffset":34296,
			"target":34962
		},
		{
			"buffer":0,
			"byteLength":240,
			"byteOffset":34656,
			"target":34962
		}
	],
	"buffers":[
		{
			"byteLength":34896,
			"uri":"greenFrogButton.bin"
		}
	]
}
