{
	"asset":{
		"generator":"Khronos glTF Blender I/O v4.1.63",
		"version":"2.0"
	},
	"extensionsUsed":[
		"KHR_materials_emissive_strength"
	],
	"scene":0,
	"scenes":[
		{
			"name":"Scene",
			"nodes":[
				0,
				11
			]
		}
	],
	"nodes":[
		{
			"mesh":0,
			"name":"Machine_collider",
			"translation":[
				0,
				0.9843147397041321,
				0
			]
		},
		{
			"mesh":1,
			"name":"GlowingBallsBack",
			"rotation":[
				0,
				0,
				-1,
				0
			],
			"scale":[
				-1,
				-1,
				-1
			],
			"translation":[
				-2.9981231689453125,
				12.15611743927002,
				-3.0012967586517334
			]
		},
		{
			"mesh":2,
			"name":"GlowingBallsFront",
			"translation":[
				-2.9981231689453125,
				12.15611743927002,
				3.0012967586517334
			]
		},
		{
			"mesh":3,
			"name":"GlowingBallsLeft",
			"rotation":[
				0.7071068286895752,
				0,
				0.7071068286895752,
				0
			],
			"scale":[
				-1,
				-1,
				-1
			],
			"translation":[
				-3.906802177429199,
				12.15611743927002,
				2.0208210945129395
			]
		},
		{
			"mesh":4,
			"name":"GlowingBallsRight",
			"rotation":[
				0,
				0.7071068286895752,
				0,
				0.7071068286895752
			],
			"translation":[
				3.906792640686035,
				12.15611743927002,
				2.0208210945129395
			]
		},
		{
			"mesh":5,
			"name":"Green mushroom.009",
			"rotation":[
				0,
				-1,
				0,
				1.6292068494294654e-07
			],
			"translation":[
				-0.031147003173828125,
				7.653152942657471,
				-3.15903902053833
			]
		},
		{
			"mesh":6,
			"name":"Green mushroom.010",
			"rotation":[
				0,
				0.7071068286895752,
				0,
				0.7071068286895752
			],
			"translation":[
				4.137007713317871,
				7.653148174285889,
				0
			]
		},
		{
			"mesh":7,
			"name":"Green mushroom.011",
			"rotation":[
				0.7071068286895752,
				0,
				0.7071068286895752,
				0
			],
			"scale":[
				-1,
				-1,
				-1
			],
			"translation":[
				-4.137009620666504,
				7.653148174285889,
				0
			]
		},
		{
			"mesh":8,
			"name":"Text",
			"rotation":[
				0,
				-0.7071068286895752,
				0.7071068286895752,
				1.1520233300643667e-07
			],
			"translation":[
				-0.031099319458007812,
				6.704776763916016,
				-3.0213212966918945
			]
		},
		{
			"mesh":9,
			"name":"Text.001",
			"rotation":[
				-0.5,
				0.5,
				0.5,
				0.5
			],
			"scale":[
				-1,
				-1,
				-1
			],
			"translation":[
				-3.9243974685668945,
				6.704776763916016,
				0
			]
		},
		{
			"mesh":10,
			"name":"Text.002",
			"rotation":[
				0.5,
				0.5,
				-0.5,
				0.5
			],
			"translation":[
				3.9243879318237305,
				6.704776763916016,
				0
			]
		},
		{
			"children":[
				1,
				2,
				3,
				4,
				5,
				6,
				7,
				8,
				9,
				10
			],
			"mesh":11,
			"name":"Machine"
		}
	],
	"materials":[
		{
			"doubleSided":true,
			"emissiveFactor":[
				0.22027888599375336,
				0.808929272051139,
				1
			],
			"extensions":{
				"KHR_materials_emissive_strength":{
					"emissiveStrength":1.4907669425010681
				}
			},
			"name":"Emissive blue",
			"pbrMetallicRoughness":{
				"baseColorFactor":[
					0.10946149379014969,
					0.40197500586509705,
					0.4969223141670227,
					1
				],
				"metallicFactor":0,
				"roughnessFactor":0.5363640189170837
			}
		},
		{
			"doubleSided":true,
			"emissiveFactor":[
				0.07454176060172557,
				0.05394706806461613,
				0.005126988219126882
			],
			"name":"Golden",
			"pbrMetallicRoughness":{
				"baseColorFactor":[
					0.7423875331878662,
					0.537237823009491,
					0.0519367977976799,
					1
				],
				"metallicFactor":0.8999999761581421,
				"roughnessFactor":0.5
			}
		},
		{
			"doubleSided":true,
			"emissiveFactor":[
				0.019461836210814654,
				0.029614478790975785,
				0.04125385941943316
			],
			"name":"Silver",
			"pbrMetallicRoughness":{
				"baseColorFactor":[
					0.1950666755437851,
					0.297512948513031,
					0.4103137254714966,
					1
				],
				"metallicFactor":0.8999999761581421,
				"roughnessFactor":0.5
			}
		},
		{
			"doubleSided":true,
			"emissiveFactor":[
				0.07454176060172557,
				0.019806824919683108,
				0.008021904647676714
			],
			"name":"Metalic red",
			"pbrMetallicRoughness":{
				"baseColorFactor":[
					0.7419909238815308,
					0.19950348138809204,
					0.08003761619329453,
					1
				],
				"metallicFactor":0.8999999761581421,
				"roughnessFactor":0.5
			}
		},
		{
			"doubleSided":true,
			"emissiveFactor":[
				0.30000001192092896,
				0.30000001192092896,
				0.30000001192092896
			],
			"emissiveTexture":{
				"index":0
			},
			"name":"Red stripes",
			"pbrMetallicRoughness":{
				"baseColorTexture":{
					"index":1
				},
				"metallicFactor":0.8999999761581421,
				"roughnessFactor":0.5
			}
		},
		{
			"doubleSided":true,
			"emissiveFactor":[
				0.1500036180020814,
				0.1500036180020814,
				0.1500036180020814
			],
			"name":"White material",
			"pbrMetallicRoughness":{
				"metallicFactor":0,
				"roughnessFactor":0.5
			}
		},
		{
			"doubleSided":true,
			"emissiveFactor":[
				0.12461503345231328,
				0,
				0.0007772411994284856
			],
			"name":"Red material",
			"pbrMetallicRoughness":{
				"baseColorFactor":[
					0.8307656049728394,
					0,
					0.005181534215807915,
					1
				],
				"metallicFactor":0.8999999761581421,
				"roughnessFactor":0.5
			}
		}
	],
	"meshes":[
		{
			"name":"Cube.004",
			"primitives":[
				{
					"attributes":{
						"POSITION":0,
						"NORMAL":1,
						"TEXCOORD_0":2
					},
					"indices":3
				}
			]
		},
		{
			"name":"Sphere.017",
			"primitives":[
				{
					"attributes":{
						"POSITION":4,
						"NORMAL":5,
						"TEXCOORD_0":6
					},
					"indices":7,
					"material":0
				}
			]
		},
		{
			"name":"Sphere.016",
			"primitives":[
				{
					"attributes":{
						"POSITION":8,
						"NORMAL":9,
						"TEXCOORD_0":10
					},
					"indices":7,
					"material":0
				}
			]
		},
		{
			"name":"Sphere.019",
			"primitives":[
				{
					"attributes":{
						"POSITION":11,
						"NORMAL":12,
						"TEXCOORD_0":13
					},
					"indices":14,
					"material":0
				}
			]
		},
		{
			"name":"Sphere.018",
			"primitives":[
				{
					"attributes":{
						"POSITION":15,
						"NORMAL":16,
						"TEXCOORD_0":17
					},
					"indices":14,
					"material":0
				}
			]
		},
		{
			"name":"Sphere.012",
			"primitives":[
				{
					"attributes":{
						"POSITION":18,
						"NORMAL":19,
						"TEXCOORD_0":20
					},
					"indices":21,
					"material":1
				}
			]
		},
		{
			"name":"Sphere.013",
			"primitives":[
				{
					"attributes":{
						"POSITION":22,
						"NORMAL":23,
						"TEXCOORD_0":24
					},
					"indices":25,
					"material":2
				}
			]
		},
		{
			"name":"Sphere.014",
			"primitives":[
				{
					"attributes":{
						"POSITION":26,
						"NORMAL":27,
						"TEXCOORD_0":28
					},
					"indices":21,
					"material":3
				}
			]
		},
		{
			"name":"Text",
			"primitives":[
				{
					"attributes":{
						"POSITION":29,
						"NORMAL":30,
						"TEXCOORD_0":31
					},
					"indices":32,
					"material":0
				}
			]
		},
		{
			"name":"Text.001",
			"primitives":[
				{
					"attributes":{
						"POSITION":33,
						"NORMAL":34,
						"TEXCOORD_0":35
					},
					"indices":36,
					"material":0
				}
			]
		},
		{
			"name":"Text.002",
			"primitives":[
				{
					"attributes":{
						"POSITION":37,
						"NORMAL":38,
						"TEXCOORD_0":39
					},
					"indices":40,
					"material":0
				}
			]
		},
		{
			"name":"Cube.002",
			"primitives":[
				{
					"attributes":{
						"POSITION":41,
						"NORMAL":42,
						"TEXCOORD_0":43
					},
					"indices":44,
					"material":4
				},
				{
					"attributes":{
						"POSITION":45,
						"NORMAL":46,
						"TEXCOORD_0":47
					},
					"indices":48,
					"material":5
				},
				{
					"attributes":{
						"POSITION":49,
						"NORMAL":50,
						"TEXCOORD_0":51
					},
					"indices":52,
					"material":6
				}
			]
		}
	],
	"textures":[
		{
			"sampler":0,
			"source":0
		},
		{
			"sampler":0,
			"source":0
		}
	],
	"images":[
		{
			"mimeType":"image/png",
			"name":"MachineStripes",
			"uri":"MachineStripes.png"
		}
	],
	"accessors":[
		{
			"bufferView":0,
			"componentType":5126,
			"count":24,
			"max":[
				3.7324159145355225,
				11.934354782104492,
				2.8500356674194336
			],
			"min":[
				-3.7324159145355225,
				-1,
				-2.8500356674194336
			],
			"type":"VEC3"
		},
		{
			"bufferView":1,
			"componentType":5126,
			"count":24,
			"type":"VEC3"
		},
		{
			"bufferView":2,
			"componentType":5126,
			"count":24,
			"type":"VEC2"
		},
		{
			"bufferView":3,
			"componentType":5123,
			"count":36,
			"type":"SCALAR"
		},
		{
			"bufferView":4,
			"componentType":5126,
			"count":1232,
			"max":[
				6.22844934463501,
				0.2491379976272583,
				0.2491379976272583
			],
			"min":[
				-0.24913793802261353,
				-0.2491379976272583,
				-0.2491379976272583
			],
			"type":"VEC3"
		},
		{
			"bufferView":5,
			"componentType":5126,
			"count":1232,
			"type":"VEC3"
		},
		{
			"bufferView":6,
			"componentType":5126,
			"count":1232,
			"type":"VEC2"
		},
		{
			"bufferView":7,
			"componentType":5123,
			"count":1680,
			"type":"SCALAR"
		},
		{
			"bufferView":8,
			"componentType":5126,
			"count":1232,
			"max":[
				6.22844934463501,
				0.2491379976272583,
				0.2491379976272583
			],
			"min":[
				-0.24913793802261353,
				-0.2491379976272583,
				-0.2491379976272583
			],
			"type":"VEC3"
		},
		{
			"bufferView":9,
			"componentType":5126,
			"count":1232,
			"type":"VEC3"
		},
		{
			"bufferView":10,
			"componentType":5126,
			"count":1232,
			"type":"VEC2"
		},
		{
			"bufferView":11,
			"componentType":5126,
			"count":880,
			"max":[
				4.235345363616943,
				0.2491379976272583,
				0.2491379976272583
			],
			"min":[
				-0.24913793802261353,
				-0.2491379976272583,
				-0.2491379976272583
			],
			"type":"VEC3"
		},
		{
			"bufferView":12,
			"componentType":5126,
			"count":880,
			"type":"VEC3"
		},
		{
			"bufferView":13,
			"componentType":5126,
			"count":880,
			"type":"VEC2"
		},
		{
			"bufferView":14,
			"componentType":5123,
			"count":1200,
			"type":"SCALAR"
		},
		{
			"bufferView":15,
			"componentType":5126,
			"count":880,
			"max":[
				4.235345363616943,
				0.2491379976272583,
				0.2491379976272583
			],
			"min":[
				-0.24913793802261353,
				-0.2491379976272583,
				-0.2491379976272583
			],
			"type":"VEC3"
		},
		{
			"bufferView":16,
			"componentType":5126,
			"count":880,
			"type":"VEC3"
		},
		{
			"bufferView":17,
			"componentType":5126,
			"count":880,
			"type":"VEC2"
		},
		{
			"bufferView":18,
			"componentType":5126,
			"count":111,
			"max":[
				0.5661049485206604,
				0.4681476950645447,
				0.2830524742603302
			],
			"min":[
				-0.5661049485206604,
				-0.4681476950645447,
				-0.2830524742603302
			],
			"type":"VEC3"
		},
		{
			"bufferView":19,
			"componentType":5126,
			"count":111,
			"type":"VEC3"
		},
		{
			"bufferView":20,
			"componentType":5126,
			"count":111,
			"type":"VEC2"
		},
		{
			"bufferView":21,
			"componentType":5123,
			"count":213,
			"type":"SCALAR"
		},
		{
			"bufferView":22,
			"componentType":5126,
			"count":111,
			"max":[
				0.5661048889160156,
				0.4681476950645447,
				0.2830524742603302
			],
			"min":[
				-0.5661050081253052,
				-0.4681476950645447,
				-0.2830524742603302
			],
			"type":"VEC3"
		},
		{
			"bufferView":23,
			"componentType":5126,
			"count":111,
			"type":"VEC3"
		},
		{
			"bufferView":24,
			"componentType":5126,
			"count":111,
			"type":"VEC2"
		},
		{
			"bufferView":25,
			"componentType":5123,
			"count":213,
			"type":"SCALAR"
		},
		{
			"bufferView":26,
			"componentType":5126,
			"count":111,
			"max":[
				0.5661050081253052,
				0.4681476950645447,
				0.2830524742603302
			],
			"min":[
				-0.5661050081253052,
				-0.4681476950645447,
				-0.2830524742603302
			],
			"type":"VEC3"
		},
		{
			"bufferView":27,
			"componentType":5126,
			"count":111,
			"type":"VEC3"
		},
		{
			"bufferView":28,
			"componentType":5126,
			"count":111,
			"type":"VEC2"
		},
		{
			"bufferView":29,
			"componentType":5126,
			"count":1176,
			"max":[
				0.6340000033378601,
				0,
				0.3500000238418579
			],
			"min":[
				-0.6340000033378601,
				-0.01979999989271164,
				-0.3500000238418579
			],
			"type":"VEC3"
		},
		{
			"bufferView":30,
			"componentType":5126,
			"count":1176,
			"type":"VEC3"
		},
		{
			"bufferView":31,
			"componentType":5126,
			"count":1176,
			"type":"VEC2"
		},
		{
			"bufferView":32,
			"componentType":5123,
			"count":2340,
			"type":"SCALAR"
		},
		{
			"bufferView":33,
			"componentType":5126,
			"count":24,
			"max":[
				0.04899999499320984,
				0,
				0.3410000205039978
			],
			"min":[
				-0.04900000989437103,
				-0.01979999989271164,
				-0.3410000205039978
			],
			"type":"VEC3"
		},
		{
			"bufferView":34,
			"componentType":5126,
			"count":24,
			"type":"VEC3"
		},
		{
			"bufferView":35,
			"componentType":5126,
			"count":24,
			"type":"VEC2"
		},
		{
			"bufferView":36,
			"componentType":5123,
			"count":36,
			"type":"SCALAR"
		},
		{
			"bufferView":37,
			"componentType":5126,
			"count":600,
			"max":[
				0.3840000033378601,
				0,
				0.3500000238418579
			],
			"min":[
				-0.3840000033378601,
				-0.01979999989271164,
				-0.3500000238418579
			],
			"type":"VEC3"
		},
		{
			"bufferView":38,
			"componentType":5126,
			"count":600,
			"type":"VEC3"
		},
		{
			"bufferView":39,
			"componentType":5126,
			"count":600,
			"type":"VEC2"
		},
		{
			"bufferView":40,
			"componentType":5123,
			"count":1188,
			"type":"SCALAR"
		},
		{
			"bufferView":41,
			"componentType":5126,
			"count":64,
			"max":[
				3.9148240089416504,
				3.1704483032226562,
				3.0127904415130615
			],
			"min":[
				-3.9148335456848145,
				0.009041786193847656,
				-3.0127904415130615
			],
			"type":"VEC3"
		},
		{
			"bufferView":42,
			"componentType":5126,
			"count":64,
			"type":"VEC3"
		},
		{
			"bufferView":43,
			"componentType":5126,
			"count":64,
			"type":"VEC2"
		},
		{
			"bufferView":44,
			"componentType":5123,
			"count":90,
			"type":"SCALAR"
		},
		{
			"bufferView":45,
			"componentType":5126,
			"count":32,
			"max":[
				3.9148240089416504,
				11.08431625366211,
				3.0127904415130615
			],
			"min":[
				-3.9148335456848145,
				3.1704483032226562,
				-3.0127904415130615
			],
			"type":"VEC3"
		},
		{
			"bufferView":46,
			"componentType":5126,
			"count":32,
			"type":"VEC3"
		},
		{
			"bufferView":47,
			"componentType":5126,
			"count":32,
			"type":"VEC2"
		},
		{
			"bufferView":48,
			"componentType":5123,
			"count":48,
			"type":"SCALAR"
		},
		{
			"bufferView":49,
			"componentType":5126,
			"count":64,
			"max":[
				3.9148240089416504,
				13.214156150817871,
				3.0127904415130615
			],
			"min":[
				-3.9148335456848145,
				11.08431625366211,
				-3.0127904415130615
			],
			"type":"VEC3"
		},
		{
			"bufferView":50,
			"componentType":5126,
			"count":64,
			"type":"VEC3"
		},
		{
			"bufferView":51,
			"componentType":5126,
			"count":64,
			"type":"VEC2"
		},
		{
			"bufferView":52,
			"componentType":5123,
			"count":90,
			"type":"SCALAR"
		}
	],
	"bufferViews":[
		{
			"buffer":0,
			"byteLength":288,
			"byteOffset":0,
			"target":34962
		},
		{
			"buffer":0,
			"byteLength":288,
			"byteOffset":288,
			"target":34962
		},
		{
			"buffer":0,
			"byteLength":192,
			"byteOffset":576,
			"target":34962
		},
		{
			"buffer":0,
			"byteLength":72,
			"byteOffset":768,
			"target":34963
		},
		{
			"buffer":0,
			"byteLength":14784,
			"byteOffset":840,
			"target":34962
		},
		{
			"buffer":0,
			"byteLength":14784,
			"byteOffset":15624,
			"target":34962
		},
		{
			"buffer":0,
			"byteLength":9856,
			"byteOffset":30408,
			"target":34962
		},
		{
			"buffer":0,
			"byteLength":3360,
			"byteOffset":40264,
			"target":34963
		},
		{
			"buffer":0,
			"byteLength":14784,
			"byteOffset":43624,
			"target":34962
		},
		{
			"buffer":0,
			"byteLength":14784,
			"byteOffset":58408,
			"target":34962
		},
		{
			"buffer":0,
			"byteLength":9856,
			"byteOffset":73192,
			"target":34962
		},
		{
			"buffer":0,
			"byteLength":10560,
			"byteOffset":83048,
			"target":34962
		},
		{
			"buffer":0,
			"byteLength":10560,
			"byteOffset":93608,
			"target":34962
		},
		{
			"buffer":0,
			"byteLength":7040,
			"byteOffset":104168,
			"target":34962
		},
		{
			"buffer":0,
			"byteLength":2400,
			"byteOffset":111208,
			"target":34963
		},
		{
			"buffer":0,
			"byteLength":10560,
			"byteOffset":113608,
			"target":34962
		},
		{
			"buffer":0,
			"byteLength":10560,
			"byteOffset":124168,
			"target":34962
		},
		{
			"buffer":0,
			"byteLength":7040,
			"byteOffset":134728,
			"target":34962
		},
		{
			"buffer":0,
			"byteLength":1332,
			"byteOffset":141768,
			"target":34962
		},
		{
			"buffer":0,
			"byteLength":1332,
			"byteOffset":143100,
			"target":34962
		},
		{
			"buffer":0,
			"byteLength":888,
			"byteOffset":144432,
			"target":34962
		},
		{
			"buffer":0,
			"byteLength":426,
			"byteOffset":145320,
			"target":34963
		},
		{
			"buffer":0,
			"byteLength":1332,
			"byteOffset":145748,
			"target":34962
		},
		{
			"buffer":0,
			"byteLength":1332,
			"byteOffset":147080,
			"target":34962
		},
		{
			"buffer":0,
			"byteLength":888,
			"byteOffset":148412,
			"target":34962
		},
		{
			"buffer":0,
			"byteLength":426,
			"byteOffset":149300,
			"target":34963
		},
		{
			"buffer":0,
			"byteLength":1332,
			"byteOffset":149728,
			"target":34962
		},
		{
			"buffer":0,
			"byteLength":1332,
			"byteOffset":151060,
			"target":34962
		},
		{
			"buffer":0,
			"byteLength":888,
			"byteOffset":152392,
			"target":34962
		},
		{
			"buffer":0,
			"byteLength":14112,
			"byteOffset":153280,
			"target":34962
		},
		{
			"buffer":0,
			"byteLength":14112,
			"byteOffset":167392,
			"target":34962
		},
		{
			"buffer":0,
			"byteLength":9408,
			"byteOffset":181504,
			"target":34962
		},
		{
			"buffer":0,
			"byteLength":4680,
			"byteOffset":190912,
			"target":34963
		},
		{
			"buffer":0,
			"byteLength":288,
			"byteOffset":195592,
			"target":34962
		},
		{
			"buffer":0,
			"byteLength":288,
			"byteOffset":195880,
			"target":34962
		},
		{
			"buffer":0,
			"byteLength":192,
			"byteOffset":196168,
			"target":34962
		},
		{
			"buffer":0,
			"byteLength":72,
			"byteOffset":196360,
			"target":34963
		},
		{
			"buffer":0,
			"byteLength":7200,
			"byteOffset":196432,
			"target":34962
		},
		{
			"buffer":0,
			"byteLength":7200,
			"byteOffset":203632,
			"target":34962
		},
		{
			"buffer":0,
			"byteLength":4800,
			"byteOffset":210832,
			"target":34962
		},
		{
			"buffer":0,
			"byteLength":2376,
			"byteOffset":215632,
			"target":34963
		},
		{
			"buffer":0,
			"byteLength":768,
			"byteOffset":218008,
			"target":34962
		},
		{
			"buffer":0,
			"byteLength":768,
			"byteOffset":218776,
			"target":34962
		},
		{
			"buffer":0,
			"byteLength":512,
			"byteOffset":219544,
			"target":34962
		},
		{
			"buffer":0,
			"byteLength":180,
			"byteOffset":220056,
			"target":34963
		},
		{
			"buffer":0,
			"byteLength":384,
			"byteOffset":220236,
			"target":34962
		},
		{
			"buffer":0,
			"byteLength":384,
			"byteOffset":220620,
			"target":34962
		},
		{
			"buffer":0,
			"byteLength":256,
			"byteOffset":221004,
			"target":34962
		},
		{
			"buffer":0,
			"byteLength":96,
			"byteOffset":221260,
			"target":34963
		},
		{
			"buffer":0,
			"byteLength":768,
			"byteOffset":221356,
			"target":34962
		},
		{
			"buffer":0,
			"byteLength":768,
			"byteOffset":222124,
			"target":34962
		},
		{
			"buffer":0,
			"byteLength":512,
			"byteOffset":222892,
			"target":34962
		},
		{
			"buffer":0,
			"byteLength":180,
			"byteOffset":223404,
			"target":34963
		}
	],
	"samplers":[
		{
			"magFilter":9729,
			"minFilter":9987
		}
	],
	"buffers":[
		{
			"byteLength":223584,
			"uri":"machineBase.bin"
		}
	]
}
