{
	"asset":{
		"generator":"Khronos glTF Blender I/O v4.1.63",
		"version":"2.0"
	},
	"scene":0,
	"scenes":[
		{
			"name":"Scene",
			"nodes":[
				0,
				1
			]
		}
	],
	"nodes":[
		{
			"mesh":0,
			"name":"RedFrogButton",
			"rotation":[
				1,
				0,
				0,
				0
			],
			"scale":[
				-1,
				-1,
				-1
			]
		},
		{
			"mesh":1,
			"name":"RedFrogButton_collider",
			"rotation":[
				1,
				0,
				0,
				0
			],
			"scale":[
				-1,
				-1,
				-1
			]
		}
	],
	"materials":[
		{
			"doubleSided":true,
			"name":"Hair",
			"pbrMetallicRoughness":{
				"baseColorFactor":[
					0,
					0,
					0,
					1
				],
				"metallicFactor":0
			}
		},
		{
			"doubleSided":true,
			"emissiveFactor":[
				0.12461503345231328,
				0,
				0.0007772411994284856
			],
			"name":"Red material",
			"pbrMetallicRoughness":{
				"baseColorFactor":[
					0.8307656049728394,
					0,
					0.005181534215807915,
					1
				],
				"metallicFactor":0.8999999761581421,
				"roughnessFactor":0.5
			}
		}
	],
	"meshes":[
		{
			"name":"Plane.002",
			"primitives":[
				{
					"attributes":{
						"POSITION":0,
						"NORMAL":1,
						"TEXCOORD_0":2
					},
					"indices":3,
					"material":0
				},
				{
					"attributes":{
						"POSITION":4,
						"NORMAL":5,
						"TEXCOORD_0":6
					},
					"indices":7,
					"material":1
				}
			]
		},
		{
			"name":"Plane.004",
			"primitives":[
				{
					"attributes":{
						"POSITION":8,
						"NORMAL":9,
						"TEXCOORD_0":10
					},
					"indices":3,
					"material":0
				},
				{
					"attributes":{
						"POSITION":11,
						"NORMAL":12,
						"TEXCOORD_0":13
					},
					"indices":7,
					"material":1
				}
			]
		}
	],
	"accessors":[
		{
			"bufferView":0,
			"componentType":5126,
			"count":30,
			"max":[
				2.4541196823120117,
				5.069390296936035,
				3.2172374725341797
			],
			"min":[
				1.0655641555786133,
				3.9196534156799316,
				3.2172374725341797
			],
			"type":"VEC3"
		},
		{
			"bufferView":1,
			"componentType":5126,
			"count":30,
			"type":"VEC3"
		},
		{
			"bufferView":2,
			"componentType":5126,
			"count":30,
			"type":"VEC2"
		},
		{
			"bufferView":3,
			"componentType":5123,
			"count":72,
			"type":"SCALAR"
		},
		{
			"bufferView":4,
			"componentType":5126,
			"count":462,
			"max":[
				2.7217235565185547,
				5.251330375671387,
				3.2172374725341797
			],
			"min":[
				0.7979599833488464,
				3.7142927646636963,
				2.8020200729370117
			],
			"type":"VEC3"
		},
		{
			"bufferView":5,
			"componentType":5126,
			"count":462,
			"type":"VEC3"
		},
		{
			"bufferView":6,
			"componentType":5126,
			"count":462,
			"type":"VEC2"
		},
		{
			"bufferView":7,
			"componentType":5123,
			"count":1632,
			"type":"SCALAR"
		},
		{
			"bufferView":8,
			"componentType":5126,
			"count":30,
			"max":[
				2.4541196823120117,
				5.069390296936035,
				3.2172374725341797
			],
			"min":[
				1.0655641555786133,
				3.9196534156799316,
				3.2172374725341797
			],
			"type":"VEC3"
		},
		{
			"bufferView":9,
			"componentType":5126,
			"count":30,
			"type":"VEC3"
		},
		{
			"bufferView":10,
			"componentType":5126,
			"count":30,
			"type":"VEC2"
		},
		{
			"bufferView":11,
			"componentType":5126,
			"count":462,
			"max":[
				2.7217235565185547,
				5.251330375671387,
				3.2172374725341797
			],
			"min":[
				0.7979599833488464,
				3.7142927646636963,
				2.8020200729370117
			],
			"type":"VEC3"
		},
		{
			"bufferView":12,
			"componentType":5126,
			"count":462,
			"type":"VEC3"
		},
		{
			"bufferView":13,
			"componentType":5126,
			"count":462,
			"type":"VEC2"
		}
	],
	"bufferViews":[
		{
			"buffer":0,
			"byteLength":360,
			"byteOffset":0,
			"target":34962
		},
		{
			"buffer":0,
			"byteLength":360,
			"byteOffset":360,
			"target":34962
		},
		{
			"buffer":0,
			"byteLength":240,
			"byteOffset":720,
			"target":34962
		},
		{
			"buffer":0,
			"byteLength":144,
			"byteOffset":960,
			"target":34963
		},
		{
			"buffer":0,
			"byteLength":5544,
			"byteOffset":1104,
			"target":34962
		},
		{
			"buffer":0,
			"byteLength":5544,
			"byteOffset":6648,
			"target":34962
		},
		{
			"buffer":0,
			"byteLength":3696,
			"byteOffset":12192,
			"target":34962
		},
		{
			"buffer":0,
			"byteLength":3264,
			"byteOffset":15888,
			"target":34963
		},
		{
			"buffer":0,
			"byteLength":360,
			"byteOffset":19152,
			"target":34962
		},
		{
			"buffer":0,
			"byteLength":360,
			"byteOffset":19512,
			"target":34962
		},
		{
			"buffer":0,
			"byteLength":240,
			"byteOffset":19872,
			"target":34962
		},
		{
			"buffer":0,
			"byteLength":5544,
			"byteOffset":20112,
			"target":34962
		},
		{
			"buffer":0,
			"byteLength":5544,
			"byteOffset":25656,
			"target":34962
		},
		{
			"buffer":0,
			"byteLength":3696,
			"byteOffset":31200,
			"target":34962
		}
	],
	"buffers":[
		{
			"byteLength":34896,
			"uri":"redFrogButton.bin"
		}
	]
}
