{
	"asset":{
		"generator":"Khronos glTF Blender I/O v4.1.63",
		"version":"2.0"
	},
	"scene":0,
	"scenes":[
		{
			"name":"Scene",
			"nodes":[
				0,
				1
			]
		}
	],
	"nodes":[
		{
			"mesh":0,
			"name":"TopLeftBronzeMushroom"
		},
		{
			"mesh":1,
			"name":"TopLeftBronzeMushroom_collider"
		}
	],
	"materials":[
		{
			"doubleSided":true,
			"emissiveFactor":[
				0.07454176060172557,
				0.019806824919683108,
				0.008021904647676714
			],
			"name":"Metalic red",
			"pbrMetallicRoughness":{
				"baseColorFactor":[
					0.7419909238815308,
					0.19950348138809204,
					0.08003761619329453,
					1
				],
				"metallicFactor":0.8999999761581421,
				"roughnessFactor":0.5
			}
		}
	],
	"meshes":[
		{
			"name":"Sphere.051",
			"primitives":[
				{
					"attributes":{
						"POSITION":0,
						"NORMAL":1,
						"TEXCOORD_0":2
					},
					"indices":3,
					"material":0
				}
			]
		},
		{
			"name":"Sphere.015",
			"primitives":[
				{
					"attributes":{
						"POSITION":4,
						"NORMAL":5,
						"TEXCOORD_0":6
					},
					"indices":3
				}
			]
		}
	],
	"accessors":[
		{
			"bufferView":0,
			"componentType":5126,
			"count":111,
			"max":[
				-0.9858877658843994,
				9.279313087463379,
				3.6112775802612305
			],
			"min":[
				-2.1180977821350098,
				8.343017578125,
				3.045172691345215
			],
			"type":"VEC3"
		},
		{
			"bufferView":1,
			"componentType":5126,
			"count":111,
			"type":"VEC3"
		},
		{
			"bufferView":2,
			"componentType":5126,
			"count":111,
			"type":"VEC2"
		},
		{
			"bufferView":3,
			"componentType":5123,
			"count":213,
			"type":"SCALAR"
		},
		{
			"bufferView":4,
			"componentType":5126,
			"count":111,
			"max":[
				-0.9858877658843994,
				9.279313087463379,
				3.6112775802612305
			],
			"min":[
				-2.1180977821350098,
				8.343017578125,
				3.045172691345215
			],
			"type":"VEC3"
		},
		{
			"bufferView":5,
			"componentType":5126,
			"count":111,
			"type":"VEC3"
		},
		{
			"bufferView":6,
			"componentType":5126,
			"count":111,
			"type":"VEC2"
		}
	],
	"bufferViews":[
		{
			"buffer":0,
			"byteLength":1332,
			"byteOffset":0,
			"target":34962
		},
		{
			"buffer":0,
			"byteLength":1332,
			"byteOffset":1332,
			"target":34962
		},
		{
			"buffer":0,
			"byteLength":888,
			"byteOffset":2664,
			"target":34962
		},
		{
			"buffer":0,
			"byteLength":426,
			"byteOffset":3552,
			"target":34963
		},
		{
			"buffer":0,
			"byteLength":1332,
			"byteOffset":3980,
			"target":34962
		},
		{
			"buffer":0,
			"byteLength":1332,
			"byteOffset":5312,
			"target":34962
		},
		{
			"buffer":0,
			"byteLength":888,
			"byteOffset":6644,
			"target":34962
		}
	],
	"buffers":[
		{
			"byteLength":7532,
			"uri":"topLeftBronzeMushroom.bin"
		}
	]
}
