{
	"asset":{
		"generator":"Khronos glTF Blender I/O v4.1.63",
		"version":"2.0"
	},
	"extensionsUsed":[
		"KHR_materials_emissive_strength"
	],
	"scene":0,
	"scenes":[
		{
			"name":"Scene",
			"nodes":[
				0
			]
		}
	],
	"nodes":[
		{
			"mesh":0,
			"name":"TryHigher",
			"rotation":[
				0.7071068286895752,
				0,
				0,
				0.7071068286895752
			],
			"translation":[
				0,
				0,
				3.025386095046997
			]
		}
	],
	"materials":[
		{
			"doubleSided":true,
			"emissiveFactor":[
				0.22027888599375336,
				0.808929272051139,
				1
			],
			"extensions":{
				"KHR_materials_emissive_strength":{
					"emissiveStrength":1.4907669425010681
				}
			},
			"name":"Emissive blue",
			"pbrMetallicRoughness":{
				"baseColorFactor":[
					0.10946149379014969,
					0.40197500586509705,
					0.4969223141670227,
					1
				],
				"metallicFactor":0,
				"roughnessFactor":0.5363640189170837
			}
		}
	],
	"meshes":[
		{
			"name":"Text.003",
			"primitives":[
				{
					"attributes":{
						"POSITION":0,
						"NORMAL":1,
						"TEXCOORD_0":2
					},
					"indices":3,
					"material":0
				}
			]
		}
	],
	"accessors":[
		{
			"bufferView":0,
			"componentType":5126,
			"count":3887,
			"max":[
				2.1104984283447266,
				0.01979999989271164,
				-9.608088493347168
			],
			"min":[
				-2.110502004623413,
				-0.01979999989271164,
				-10.520088195800781
			],
			"type":"VEC3"
		},
		{
			"bufferView":1,
			"componentType":5126,
			"count":3887,
			"type":"VEC3"
		},
		{
			"bufferView":2,
			"componentType":5126,
			"count":3887,
			"type":"VEC2"
		},
		{
			"bufferView":3,
			"componentType":5123,
			"count":7680,
			"type":"SCALAR"
		}
	],
	"bufferViews":[
		{
			"buffer":0,
			"byteLength":46644,
			"byteOffset":0,
			"target":34962
		},
		{
			"buffer":0,
			"byteLength":46644,
			"byteOffset":46644,
			"target":34962
		},
		{
			"buffer":0,
			"byteLength":31096,
			"byteOffset":93288,
			"target":34962
		},
		{
			"buffer":0,
			"byteLength":15360,
			"byteOffset":124384,
			"target":34963
		}
	],
	"buffers":[
		{
			"byteLength":139744,
			"uri":"tryHigher.bin"
		}
	]
}
