{
	"asset":{
		"generator":"Khronos glTF Blender I/O v4.1.63",
		"version":"2.0"
	},
	"extensionsUsed":[
		"KHR_materials_emissive_strength"
	],
	"scene":0,
	"scenes":[
		{
			"name":"Scene",
			"nodes":[
				0
			]
		}
	],
	"nodes":[
		{
			"mesh":0,
			"name":"TryLower",
			"rotation":[
				0.7071068286895752,
				0,
				0,
				0.7071068286895752
			],
			"translation":[
				0,
				0,
				3.025386095046997
			]
		}
	],
	"materials":[
		{
			"doubleSided":true,
			"emissiveFactor":[
				0.22027888599375336,
				0.808929272051139,
				1
			],
			"extensions":{
				"KHR_materials_emissive_strength":{
					"emissiveStrength":1.4907669425010681
				}
			},
			"name":"Emissive blue",
			"pbrMetallicRoughness":{
				"baseColorFactor":[
					0.10946149379014969,
					0.40197500586509705,
					0.4969223141670227,
					1
				],
				"metallicFactor":0,
				"roughnessFactor":0.5363640189170837
			}
		}
	],
	"meshes":[
		{
			"name":"Text.004",
			"primitives":[
				{
					"attributes":{
						"POSITION":0,
						"NORMAL":1,
						"TEXCOORD_0":2
					},
					"indices":3,
					"material":0
				}
			]
		}
	],
	"accessors":[
		{
			"bufferView":0,
			"componentType":5126,
			"count":2033,
			"max":[
				2.032498359680176,
				0.01979999989271164,
				-9.608088493347168
			],
			"min":[
				-2.0325021743774414,
				-0.01979999989271164,
				-10.520088195800781
			],
			"type":"VEC3"
		},
		{
			"bufferView":1,
			"componentType":5126,
			"count":2033,
			"type":"VEC3"
		},
		{
			"bufferView":2,
			"componentType":5126,
			"count":2033,
			"type":"VEC2"
		},
		{
			"bufferView":3,
			"componentType":5123,
			"count":3984,
			"type":"SCALAR"
		}
	],
	"bufferViews":[
		{
			"buffer":0,
			"byteLength":24396,
			"byteOffset":0,
			"target":34962
		},
		{
			"buffer":0,
			"byteLength":24396,
			"byteOffset":24396,
			"target":34962
		},
		{
			"buffer":0,
			"byteLength":16264,
			"byteOffset":48792,
			"target":34962
		},
		{
			"buffer":0,
			"byteLength":7968,
			"byteOffset":65056,
			"target":34963
		}
	],
	"buffers":[
		{
			"byteLength":73024,
			"uri":"tryLower.bin"
		}
	]
}
